<svg width="1616" height="960" viewBox="0 0 1616 960" fill="none" xmlns="http://www.w3.org/2000/svg">
<g clip-path="url(#clip0_17_2588)">
<rect width="1616" height="960" fill="#151B26"/>
<rect width="1616" height="960" fill="url(#paint0_radial_17_2588)" fill-opacity="0.12"/>
<g opacity="0.4">
<mask id="mask0_17_2588" style="mask-type:alpha" maskUnits="userSpaceOnUse" x="287" y="87" width="1043" height="787">
<path d="M1330 87H287V873.224H1330V87Z" fill="url(#paint1_radial_17_2588)"/>
</mask>
<g mask="url(#mask0_17_2588)">
<g opacity="0.3">
<path d="M1328.88 88H288V871.82H1328.88V88Z" stroke="white"/>
<g opacity="0.6">
<path d="M339.106 87V871.203" stroke="white"/>
<path d="M391.213 87V871.203" stroke="white"/>
<path d="M443.319 87V871.203" stroke="white"/>
<path d="M495.426 87V871.203" stroke="white"/>
<path d="M547.533 87V871.203" stroke="white"/>
<path d="M599.641 87V871.203" stroke="white"/>
<path d="M651.746 87V871.203" stroke="white"/>
<path d="M703.853 87V871.203" stroke="white"/>
<path d="M755.96 87V871.203" stroke="white"/>
<path d="M808.066 87V871.203" stroke="white"/>
<path d="M860.172 87V871.203" stroke="white"/>
<path d="M912.279 87V871.203" stroke="white"/>
<path d="M964.386 87V871.203" stroke="white"/>
<path d="M1016.49 87V871.203" stroke="white"/>
<path d="M1068.6 87V871.203" stroke="white"/>
<path d="M1120.71 87V871.203" stroke="white"/>
<path d="M287 140.843H1330" stroke="white"/>
<path d="M287 192.949H1330" stroke="white"/>
<path d="M287 245.055H1330" stroke="white"/>
<path d="M287 297.163H1330" stroke="white"/>
<path d="M287 349.271H1330" stroke="white"/>
<path d="M287 401.38H1330" stroke="white"/>
<path d="M287 453.48H1330" stroke="white"/>
<path d="M287 505.589H1330" stroke="white"/>
<path d="M287 557.694H1330" stroke="white"/>
<path d="M287 609.804H1330" stroke="white"/>
<path d="M287 661.91H1330" stroke="white"/>
<path d="M287 714.015H1330" stroke="white"/>
<path d="M287 766.123H1330" stroke="white"/>
<path d="M287 818.227H1330" stroke="white"/>
</g>
</g>
</g>
</g>
<path d="M555.66 461.24C555.66 456.853 554.307 453.353 551.6 450.74C548.987 448.127 544.88 446.82 539.28 446.82H518.42V475.8H539.28C543.013 475.8 546.093 475.24 548.52 474.12C550.947 472.907 552.72 471.227 553.84 469.08C555.053 466.84 555.66 464.227 555.66 461.24ZM539.84 431C547.773 431 554.307 432.4 559.44 435.2C564.667 437.907 568.54 441.593 571.06 446.26C573.673 450.833 574.98 455.827 574.98 461.24C574.98 464.88 574.327 468.52 573.02 472.16C571.713 475.707 569.66 478.973 566.86 481.96C564.06 484.853 560.42 487.187 555.94 488.96C551.553 490.733 546.187 491.62 539.84 491.62H518.42V529H499.52V431H539.84ZM550.48 485.32L576.94 529H555.8L530.46 485.32H550.48ZM622.335 529.98C615.522 529.98 609.455 528.533 604.135 525.64C598.815 522.653 594.615 518.5 591.535 513.18C588.548 507.767 587.055 501.42 587.055 494.14C587.055 486.767 588.595 480.373 591.675 474.96C594.848 469.547 599.142 465.393 604.555 462.5C609.968 459.513 616.035 458.02 622.755 458.02C629.475 458.02 635.542 459.513 640.955 462.5C646.368 465.393 650.662 469.547 653.835 474.96C657.008 480.28 658.595 486.58 658.595 493.86C658.595 501.233 656.962 507.627 653.695 513.04C650.522 518.453 646.182 522.653 640.675 525.64C635.262 528.533 629.148 529.98 622.335 529.98ZM622.195 513.88C625.088 513.88 627.842 513.18 630.455 511.78C633.068 510.287 635.215 508.093 636.895 505.2C638.575 502.213 639.415 498.433 639.415 493.86C639.415 489.473 638.622 485.833 637.035 482.94C635.448 479.953 633.348 477.76 630.735 476.36C628.215 474.867 625.462 474.12 622.475 474.12C619.582 474.12 616.875 474.867 614.355 476.36C611.928 477.76 609.968 479.953 608.475 482.94C607.075 485.833 606.375 489.567 606.375 494.14C606.375 498.527 607.075 502.213 608.475 505.2C609.875 508.093 611.788 510.287 614.215 511.78C616.642 513.18 619.302 513.88 622.195 513.88ZM703.113 529.98C696.299 529.98 690.326 528.487 685.193 525.5C680.059 522.513 676.046 518.36 673.153 513.04C670.259 507.627 668.813 501.373 668.813 494.28C668.813 487.093 670.259 480.793 673.153 475.38C676.046 469.967 680.106 465.72 685.333 462.64C690.559 459.56 696.579 458.02 703.393 458.02C710.766 458.02 717.299 459.84 722.993 463.48C728.779 467.12 732.839 472.02 735.173 478.18L718.513 482.94C717.393 480.233 715.526 478.087 712.913 476.5C710.393 474.913 707.499 474.12 704.233 474.12C700.966 474.12 698.073 474.96 695.553 476.64C693.126 478.32 691.213 480.653 689.813 483.64C688.506 486.627 687.853 490.127 687.853 494.14C687.853 500.207 689.346 505.013 692.333 508.56C695.319 512.107 699.333 513.88 704.373 513.88C707.546 513.88 710.439 513.133 713.053 511.64C715.666 510.053 717.626 507.907 718.933 505.2L735.453 509.96C732.933 516.027 728.733 520.88 722.853 524.52C717.066 528.16 710.486 529.98 703.113 529.98ZM749.149 428.2H767.209V486.3H771.689L794.789 459H818.309L787.369 493.72L818.449 529H794.929L771.549 501.28H767.209V529H749.149V428.2ZM855.44 529.98C848.44 529.98 842.28 528.44 836.96 525.36C831.64 522.28 827.487 517.987 824.5 512.48C821.607 506.973 820.16 500.627 820.16 493.44C820.16 486.533 821.607 480.42 824.5 475.1C827.394 469.78 831.407 465.627 836.54 462.64C841.767 459.56 847.694 458.02 854.32 458.02C861.04 458.02 866.967 459.467 872.1 462.36C877.234 465.253 881.2 469.313 884 474.54C886.894 479.673 888.34 485.693 888.34 492.6C888.34 493.627 888.247 494.793 888.06 496.1C887.967 497.313 887.827 498.62 887.64 500.02H839.48C839.854 503.007 840.787 505.573 842.28 507.72C843.867 509.773 845.78 511.407 848.02 512.62C850.354 513.74 852.967 514.3 855.86 514.3C859.314 514.3 862.394 513.6 865.1 512.2C867.9 510.707 869.907 508.793 871.12 506.46L887.08 511.22C884.28 517.193 880.08 521.813 874.48 525.08C868.974 528.347 862.627 529.98 855.44 529.98ZM868.74 487C868.647 484.387 867.947 482.053 866.64 480C865.334 477.853 863.607 476.22 861.46 475.1C859.314 473.887 856.934 473.28 854.32 473.28C851.987 473.28 849.794 473.887 847.74 475.1C845.687 476.313 843.914 477.947 842.42 480C841.02 481.96 840.087 484.293 839.62 487H868.74ZM905.536 459V439.4H923.736V459H939.136V474.82H923.736V503.24C923.736 506.88 924.483 509.447 925.976 510.94C927.563 512.433 929.523 513.227 931.856 513.32C934.283 513.413 936.71 513.273 939.136 512.9V528.3C934.843 529.233 930.643 529.513 926.536 529.14C922.523 528.767 918.93 527.693 915.756 525.92C912.583 524.053 910.063 521.253 908.196 517.52C906.423 513.787 905.536 509.027 905.536 503.24V474.82H895.596V459H905.536ZM991.421 431H1010.32V492.88C1010.32 497.453 1011.25 501.327 1013.12 504.5C1014.99 507.58 1017.51 509.913 1020.68 511.5C1023.95 513.087 1027.68 513.88 1031.88 513.88C1036.17 513.88 1039.95 513.087 1043.22 511.5C1046.49 509.913 1049.05 507.58 1050.92 504.5C1052.79 501.327 1053.72 497.453 1053.72 492.88V431H1072.62V491.9C1072.62 498.34 1071.5 503.94 1069.26 508.7C1067.02 513.46 1063.94 517.427 1060.02 520.6C1056.19 523.773 1051.81 526.153 1046.86 527.74C1042.01 529.233 1036.92 529.98 1031.6 529.98C1024.51 529.98 1017.88 528.58 1011.72 525.78C1005.65 522.98 1000.75 518.78 997.021 513.18C993.288 507.58 991.421 500.487 991.421 491.9V431ZM1091.24 431H1110.14V529H1091.24V431Z" fill="url(#paint2_linear_17_2588)"/>
<g opacity="0.2" filter="url(#filter0_f_17_2588)">
<path d="M2089.55 -953L2129.86 -912.695L1422.75 -205.588L929.446 264L1382.45 -245.893L2089.55 -953Z" fill="url(#paint3_linear_17_2588)"/>
</g>
<g opacity="0.32" filter="url(#filter1_f_17_2588)">
<path d="M1753.55 -936L1793.86 -895.695L1086.75 -188.588L593.447 281L1046.45 -228.893L1753.55 -936Z" fill="url(#paint4_linear_17_2588)"/>
</g>
<g opacity="0.32" filter="url(#filter2_f_17_2588)">
<path d="M1624.55 -1109L1664.86 -1068.69L957.752 -361.588L464.447 108L917.447 -401.893L1624.55 -1109Z" fill="url(#paint5_linear_17_2588)"/>
</g>
<g opacity="0.2" filter="url(#filter3_f_17_2588)">
<path d="M-674.695 1825.86L-715 1785.55L-7.89363 1078.45L485.412 608.858L32.4115 1118.75L-674.695 1825.86Z" fill="url(#paint6_linear_17_2588)"/>
</g>
<g opacity="0.32" filter="url(#filter4_f_17_2588)">
<path d="M-338.695 1808.86L-379 1768.55L328.106 1061.45L821.412 591.858L368.411 1101.75L-338.695 1808.86Z" fill="url(#paint7_linear_17_2588)"/>
</g>
<g opacity="0.32" filter="url(#filter5_f_17_2588)">
<path d="M-209.695 1981.86L-250 1941.55L457.106 1234.45L950.412 764.858L497.411 1274.75L-209.695 1981.86Z" fill="url(#paint8_linear_17_2588)"/>
</g>
</g>
<defs>
<filter id="filter0_f_17_2588" x="809.446" y="-1073" width="1440.41" height="1457" filterUnits="userSpaceOnUse" color-interpolation-filters="sRGB">
<feFlood flood-opacity="0" result="BackgroundImageFix"/>
<feBlend mode="normal" in="SourceGraphic" in2="BackgroundImageFix" result="shape"/>
<feGaussianBlur stdDeviation="60" result="effect1_foregroundBlur_17_2588"/>
</filter>
<filter id="filter1_f_17_2588" x="473.447" y="-1056" width="1440.41" height="1457" filterUnits="userSpaceOnUse" color-interpolation-filters="sRGB">
<feFlood flood-opacity="0" result="BackgroundImageFix"/>
<feBlend mode="normal" in="SourceGraphic" in2="BackgroundImageFix" result="shape"/>
<feGaussianBlur stdDeviation="60" result="effect1_foregroundBlur_17_2588"/>
</filter>
<filter id="filter2_f_17_2588" x="344.447" y="-1229" width="1440.41" height="1457" filterUnits="userSpaceOnUse" color-interpolation-filters="sRGB">
<feFlood flood-opacity="0" result="BackgroundImageFix"/>
<feBlend mode="normal" in="SourceGraphic" in2="BackgroundImageFix" result="shape"/>
<feGaussianBlur stdDeviation="60" result="effect1_foregroundBlur_17_2588"/>
</filter>
<filter id="filter3_f_17_2588" x="-835" y="488.858" width="1440.41" height="1457" filterUnits="userSpaceOnUse" color-interpolation-filters="sRGB">
<feFlood flood-opacity="0" result="BackgroundImageFix"/>
<feBlend mode="normal" in="SourceGraphic" in2="BackgroundImageFix" result="shape"/>
<feGaussianBlur stdDeviation="60" result="effect1_foregroundBlur_17_2588"/>
</filter>
<filter id="filter4_f_17_2588" x="-499" y="471.858" width="1440.41" height="1457" filterUnits="userSpaceOnUse" color-interpolation-filters="sRGB">
<feFlood flood-opacity="0" result="BackgroundImageFix"/>
<feBlend mode="normal" in="SourceGraphic" in2="BackgroundImageFix" result="shape"/>
<feGaussianBlur stdDeviation="60" result="effect1_foregroundBlur_17_2588"/>
</filter>
<filter id="filter5_f_17_2588" x="-370" y="644.858" width="1440.41" height="1457" filterUnits="userSpaceOnUse" color-interpolation-filters="sRGB">
<feFlood flood-opacity="0" result="BackgroundImageFix"/>
<feBlend mode="normal" in="SourceGraphic" in2="BackgroundImageFix" result="shape"/>
<feGaussianBlur stdDeviation="60" result="effect1_foregroundBlur_17_2588"/>
</filter>
<radialGradient id="paint0_radial_17_2588" cx="0" cy="0" r="1" gradientUnits="userSpaceOnUse" gradientTransform="translate(795.5) rotate(90) scale(480 808)">
<stop stop-color="white"/>
<stop offset="1" stop-color="white" stop-opacity="0"/>
</radialGradient>
<radialGradient id="paint1_radial_17_2588" cx="0" cy="0" r="1" gradientUnits="userSpaceOnUse" gradientTransform="translate(774.263 470.329) rotate(-135) scale(442.843 495.935)">
<stop stop-color="#D9D9D9"/>
<stop offset="1" stop-color="#D9D9D9" stop-opacity="0"/>
</radialGradient>
<linearGradient id="paint2_linear_17_2588" x1="805" y1="396" x2="805.401" y2="555.999" gradientUnits="userSpaceOnUse">
<stop stop-color="white"/>
<stop offset="1" stop-color="#B1CBE3"/>
</linearGradient>
<linearGradient id="paint3_linear_17_2588" x1="2109.71" y1="-932.847" x2="1402.6" y2="-225.741" gradientUnits="userSpaceOnUse">
<stop stop-color="white"/>
<stop offset="1" stop-color="#D3D8DF"/>
</linearGradient>
<linearGradient id="paint4_linear_17_2588" x1="1773.71" y1="-915.847" x2="1066.6" y2="-208.741" gradientUnits="userSpaceOnUse">
<stop stop-color="white"/>
<stop offset="1" stop-color="#D3D8DF"/>
</linearGradient>
<linearGradient id="paint5_linear_17_2588" x1="1644.71" y1="-1088.85" x2="937.6" y2="-381.741" gradientUnits="userSpaceOnUse">
<stop stop-color="white"/>
<stop offset="1" stop-color="#D3D8DF"/>
</linearGradient>
<linearGradient id="paint6_linear_17_2588" x1="-694.848" y1="1805.71" x2="12.2589" y2="1098.6" gradientUnits="userSpaceOnUse">
<stop stop-color="white"/>
<stop offset="1" stop-color="#D3D8DF"/>
</linearGradient>
<linearGradient id="paint7_linear_17_2588" x1="-358.848" y1="1788.71" x2="348.259" y2="1081.6" gradientUnits="userSpaceOnUse">
<stop stop-color="white"/>
<stop offset="1" stop-color="#D3D8DF"/>
</linearGradient>
<linearGradient id="paint8_linear_17_2588" x1="-229.848" y1="1961.71" x2="477.259" y2="1254.6" gradientUnits="userSpaceOnUse">
<stop stop-color="white"/>
<stop offset="1" stop-color="#D3D8DF"/>
</linearGradient>
<clipPath id="clip0_17_2588">
<rect width="1616" height="960" fill="white"/>
</clipPath>
</defs>
</svg>
